<svg width="318" height="260" viewBox="0 0 318 260" fill="none" xmlns="http://www.w3.org/2000/svg">
<mask id="path-1-inside-1_3_15" fill="white">
<path d="M317.438 163C313.374 227 270.5 260 171.438 260C119 260 -3.45237 234.5 0.161969 172.5C5.43775 82 160.5 59 171.438 0.5C193.5 54.5 321.501 99 317.438 163Z"/>
</mask>
<path d="M317.438 163C313.374 227 270.5 260 171.438 260C119 260 -3.45237 234.5 0.161969 172.5C5.43775 82 160.5 59 171.438 0.5C193.5 54.5 321.501 99 317.438 163Z" fill="#117C9D"/>
<path d="M0.161969 172.5L-1.83464 172.384L0.161969 172.5ZM171.438 0.5L173.289 -0.256424L170.72 -6.54438L169.472 0.13243L171.438 0.5ZM315.442 162.873C313.44 194.403 301.925 218.024 278.928 233.853C255.809 249.765 220.809 258 171.438 258V262C221.129 262 257.097 253.735 281.196 237.147C305.418 220.476 317.372 195.597 319.434 163.127L315.442 162.873ZM171.438 258C145.446 258 101.968 251.664 65.4984 237.633C47.2628 230.618 30.9231 221.733 19.3965 210.872C7.90075 200.041 1.29896 187.362 2.15858 172.616L-1.83464 172.384C-2.78219 188.638 4.56718 202.396 16.6534 213.784C28.7088 225.142 45.5819 234.257 64.0622 241.367C101.024 255.586 144.992 262 171.438 262V258ZM2.15858 172.616C3.44131 150.613 13.8162 132.637 29.0412 117.07C44.2967 101.472 64.3215 88.3953 84.7025 76.2168C104.99 64.0941 125.726 52.8127 141.983 40.9434C158.207 29.0981 170.519 16.2964 173.404 0.86757L169.472 0.13243C166.888 13.9536 155.715 25.9644 139.624 37.7128C123.566 49.4373 103.155 60.5309 82.6507 72.7832C62.2394 84.9797 41.8259 98.2778 26.1816 114.273C10.5068 130.3 -0.479483 149.137 -1.83464 172.384L2.15858 172.616ZM169.586 1.25642C175.295 15.2289 187.755 28.3963 202.835 41.1966C217.931 54.0107 235.984 66.7182 253.029 79.5958C270.148 92.5281 286.295 105.662 297.911 119.49C309.522 133.313 316.412 147.6 315.442 162.873L319.434 163.127C320.496 146.4 312.909 131.125 300.973 116.917C289.042 102.713 272.572 89.3469 255.44 76.4042C238.236 63.4068 220.405 50.8643 205.423 38.1471C190.425 25.4162 178.612 12.7711 173.289 -0.256424L169.586 1.25642Z" fill="black" mask="url(#path-1-inside-1_3_15)"/>
<circle cx="201" cy="149" r="24" fill="white" stroke="black" stroke-width="2"/>
<circle cx="201.5" cy="149.5" r="11.5" fill="black"/>
<circle cx="131" cy="153" r="24" fill="white" stroke="black" stroke-width="2"/>
<circle cx="131.5" cy="153.5" r="11.5" fill="black"/>
<path d="M84.2067 181.689L84.2911 181.497L84.2911 181.287C84.2911 180.743 84.4098 180.373 84.5809 180.11C84.751 179.848 85.0226 179.615 85.4588 179.427C86.3794 179.03 87.8747 178.9 90.0292 179.08C94.3028 179.436 100.502 180.936 108.219 182.817L108.506 182.887C123.834 186.623 144.747 191.721 166.993 191.721C189.35 191.721 206.518 188.22 219.085 185.292C220.665 184.923 222.167 184.566 223.594 184.226C227.865 183.208 231.468 182.35 234.484 181.85C238.56 181.175 241.243 181.222 242.93 182.161C244.924 183.27 245.763 184.413 245.954 185.453C246.145 186.495 245.747 187.766 244.496 189.27C241.979 192.297 236.517 195.641 228.877 198.755C213.672 204.953 190.454 210 166.993 210C143.54 210 121.706 204.957 106.273 198.753C98.5489 195.649 92.4799 192.274 88.6196 189.134C86.6851 187.56 85.3593 186.088 84.6382 184.787C83.9227 183.497 83.8563 182.487 84.2067 181.689Z" fill="url(#paint0_linear_3_15)" stroke="black" stroke-width="2"/>
<defs>
<linearGradient id="paint0_linear_3_15" x1="39.0691" y1="188.366" x2="273.717" y2="190.425" gradientUnits="userSpaceOnUse">
<stop offset="0.209525"/>
<stop offset="0.289782" stop-color="#F4BCBC"/>
<stop offset="0.505208" stop-color="#F4BBBB"/>
<stop offset="0.801962" stop-color="#F4BCBC"/>
<stop offset="0.890625"/>
</linearGradient>
</defs>
</svg>
