<svg width="318" height="260" viewBox="0 0 318 260" fill="none" xmlns="http://www.w3.org/2000/svg">
<path d="M316.44 162.937C314.423 194.702 302.798 218.637 279.495 234.676C256.131 250.758 220.889 259 171.438 259C145.332 259 101.732 252.644 65.1394 238.567C46.8425 231.528 30.3695 222.585 18.7107 211.6C7.06736 200.63 0.27867 187.681 1.16027 172.558C2.46111 150.244 12.9889 132.053 28.3263 116.371C43.679 100.674 63.801 87.5414 84.1896 75.3584C89.4111 72.2383 94.6532 69.1789 99.8355 66.1545C114.842 57.3963 129.346 48.9314 141.393 40.1358C156.507 29.1011 167.992 17.3843 171.739 3.65123C177.797 16.3738 189.439 28.5144 203.482 40.4343C214.247 49.5719 226.507 58.6465 238.862 67.7911C243.8 71.446 248.753 75.1121 253.632 78.7979C270.754 91.7328 286.982 104.925 298.676 118.846C310.369 132.766 317.433 147.3 316.44 162.937Z" fill="#A73D3D" stroke="black" stroke-width="2"/>
<circle cx="201" cy="149" r="24" fill="white" stroke="black" stroke-width="2"/>
<circle cx="201.5" cy="149.5" r="11.5" fill="black"/>
<circle cx="131" cy="153" r="24" fill="white" stroke="black" stroke-width="2"/>
<circle cx="131.5" cy="153.5" r="11.5" fill="black"/>
<path d="M84.2067 181.689L84.2911 181.497L84.2911 181.287C84.2911 180.743 84.4098 180.373 84.5809 180.11C84.751 179.848 85.0226 179.615 85.4588 179.427C86.3794 179.03 87.8747 178.9 90.0292 179.08C94.3028 179.436 100.502 180.936 108.219 182.817L108.506 182.887C123.834 186.623 144.747 191.721 166.993 191.721C189.35 191.721 206.518 188.22 219.085 185.292C220.665 184.923 222.167 184.566 223.594 184.226C227.865 183.208 231.468 182.35 234.484 181.85C238.56 181.175 241.243 181.222 242.93 182.161C244.924 183.27 245.763 184.413 245.954 185.453C246.145 186.495 245.747 187.766 244.496 189.27C241.979 192.297 236.517 195.641 228.877 198.755C213.672 204.953 190.454 210 166.993 210C143.54 210 121.706 204.957 106.273 198.753C98.5489 195.649 92.4799 192.274 88.6196 189.134C86.6851 187.56 85.3593 186.088 84.6382 184.787C83.9227 183.497 83.8563 182.487 84.2067 181.689Z" fill="url(#paint0_linear_3_15)" stroke="black" stroke-width="2"/>
<defs>
<linearGradient id="paint0_linear_3_15" x1="39.0691" y1="188.366" x2="273.717" y2="190.425" gradientUnits="userSpaceOnUse">
<stop offset="0.209525"/>
<stop offset="0.289782" stop-color="#F4BCBC"/>
<stop offset="0.505208" stop-color="#F4BBBB"/>
<stop offset="0.801962" stop-color="#F4BCBC"/>
<stop offset="0.890625"/>
</linearGradient>
</defs>
</svg>
