<svg width="318" height="260" viewBox="0 0 318 260" fill="none" xmlns="http://www.w3.org/2000/svg">
<path d="M316.356 162.437C314.339 194.202 302.715 218.137 279.412 234.176C256.047 250.258 220.805 258.5 171.354 258.5C145.249 258.5 101.649 252.144 65.0557 238.067C46.7589 231.028 30.2859 222.085 18.627 211.1C6.9837 200.13 0.195006 187.181 1.07661 172.058C2.37745 149.744 12.9052 131.553 28.2427 115.871C43.5954 100.174 63.7174 87.0414 84.1059 74.8584C89.3274 71.7383 94.5696 68.6789 99.7518 65.6545C114.758 56.8963 129.262 48.4314 141.309 39.6358C156.423 28.6011 167.909 16.8843 171.655 3.15123C177.714 15.8738 189.356 28.0144 203.398 39.9343C214.163 49.0719 226.424 58.1465 238.779 67.2911C243.717 70.946 248.67 74.6121 253.548 78.2979C270.67 91.2328 286.898 104.425 298.593 118.346C310.285 132.266 317.349 146.8 316.356 162.437Z" fill="#A73D3D" stroke="black" stroke-width="2"/>
<path d="M84.1231 181.189L84.2074 180.997L84.2074 180.787C84.2074 180.243 84.3262 179.873 84.4972 179.61C84.6673 179.348 84.9389 179.115 85.3751 178.927C86.2957 178.53 87.7911 178.4 89.9455 178.58C94.2191 178.936 100.418 180.436 108.136 182.317L108.423 182.387C123.75 186.123 144.664 191.221 166.909 191.221C189.266 191.221 206.435 187.72 219.001 184.792C220.581 184.423 222.083 184.066 223.511 183.726C227.781 182.708 231.384 181.85 234.4 181.35C238.477 180.675 241.159 180.722 242.846 181.661C244.84 182.77 245.679 183.913 245.87 184.953C246.062 185.995 245.663 187.266 244.412 188.77C241.895 191.797 236.434 195.141 228.794 198.255C213.589 204.453 190.371 209.5 166.909 209.5C143.457 209.5 121.622 204.457 106.189 198.253C98.4652 195.149 92.3962 191.774 88.5359 188.634C86.6014 187.06 85.2756 185.588 84.5545 184.287C83.839 182.997 83.7726 181.987 84.1231 181.189Z" fill="url(#paint0_linear_10_14)" stroke="black" stroke-width="2"/>
<path d="M90 149.5L103.5 142.5L119 140H136L148 145" stroke="black" stroke-width="3"/>
<path d="M239 149.5L225.5 142.5L210 140H193L181 145" stroke="black" stroke-width="3"/>
<defs>
<linearGradient id="paint0_linear_10_14" x1="38.9854" y1="187.866" x2="273.633" y2="189.925" gradientUnits="userSpaceOnUse">
<stop offset="0.209525"/>
<stop offset="0.289782" stop-color="#F4BCBC"/>
<stop offset="0.505208" stop-color="#F4BBBB"/>
<stop offset="0.801962" stop-color="#F4BCBC"/>
<stop offset="0.890625"/>
</linearGradient>
</defs>
</svg>
